<svg xmlns="http://www.w3.org/2000/svg" xmlns:xlink="http://www.w3.org/1999/xlink" width="28" height="19.623" viewBox="0 0 28 19.623">
  <defs>
    <clipPath id="clip-path">
      <path id="Path_648" data-name="Path 648" d="M25.891-16.192a1.4,1.4,0,0,0-1.4,1.407,1.4,1.4,0,0,0,1.4,1.407,1.4,1.4,0,0,0,1.4-1.407A1.4,1.4,0,0,0,25.891-16.192Zm0-4.185a1.4,1.4,0,0,0-1.4,1.408,1.4,1.4,0,0,0,1.4,1.407,1.4,1.4,0,0,0,1.4-1.407A1.4,1.4,0,0,0,25.891-20.377Zm-4.331,0a1.4,1.4,0,0,0-1.4,1.408,1.4,1.4,0,0,0,1.4,1.407,1.4,1.4,0,0,0,1.4-1.407A1.4,1.4,0,0,0,21.561-20.377ZM42.6-24.641a1.4,1.4,0,0,0-1.4,1.407,1.4,1.4,0,0,0,1.4,1.408A1.4,1.4,0,0,0,44-23.234,1.4,1.4,0,0,0,42.6-24.641Zm-4.156,0a1.4,1.4,0,0,0-1.4,1.407,1.4,1.4,0,0,0,1.4,1.408,1.4,1.4,0,0,0,1.4-1.408A1.4,1.4,0,0,0,38.444-24.641Zm-4.241,0a1.4,1.4,0,0,0-1.4,1.407,1.4,1.4,0,0,0,1.4,1.408,1.4,1.4,0,0,0,1.4-1.408A1.4,1.4,0,0,0,34.2-24.641Zm-4.156,0a1.4,1.4,0,0,0-1.4,1.407,1.4,1.4,0,0,0,1.4,1.408,1.4,1.4,0,0,0,1.4-1.408A1.4,1.4,0,0,0,30.048-24.641Zm-4.156,0a1.4,1.4,0,0,0-1.4,1.407,1.4,1.4,0,0,0,1.4,1.408,1.4,1.4,0,0,0,1.4-1.408A1.4,1.4,0,0,0,25.891-24.641Zm-4.331,0a1.4,1.4,0,0,0-1.4,1.407,1.4,1.4,0,0,0,1.4,1.408,1.4,1.4,0,0,0,1.4-1.408A1.4,1.4,0,0,0,21.561-24.641Zm-4.161,0A1.4,1.4,0,0,0,16-23.234a1.4,1.4,0,0,0,1.4,1.408,1.4,1.4,0,0,0,1.4-1.408A1.4,1.4,0,0,0,17.4-24.641Zm8.492-4.18a1.4,1.4,0,0,0-1.4,1.408,1.4,1.4,0,0,0,1.4,1.407,1.4,1.4,0,0,0,1.4-1.407A1.4,1.4,0,0,0,25.891-28.821Zm-4.331,0a1.4,1.4,0,0,0-1.4,1.408,1.4,1.4,0,0,0,1.4,1.407,1.4,1.4,0,0,0,1.4-1.407A1.4,1.4,0,0,0,21.561-28.821ZM25.891-33a1.4,1.4,0,0,0-1.4,1.407,1.4,1.4,0,0,0,1.4,1.407,1.4,1.4,0,0,0,1.4-1.407A1.4,1.4,0,0,0,25.891-33Z" fill="#331a4e" clip-rule="evenodd"/>
    </clipPath>
    <clipPath id="clip-path-2">
      <path id="Path_647" data-name="Path 647" d="M0,242.845H457.336V-753H0Z" transform="translate(0 753)" fill="#331a4e"/>
    </clipPath>
  </defs>
  <g id="Group_195" data-name="Group 195" transform="translate(-16 33)" clip-path="url(#clip-path)">
    <g id="Group_194" data-name="Group 194" transform="translate(-3.513 -916.015)" clip-path="url(#clip-path-2)">
      <path id="Path_646" data-name="Path 646" d="M11-6.113H51.2V-38H11Z" transform="translate(2.415 914.883)" fill="#331a4e"/>
    </g>
  </g>
</svg>
